<svg width="400" height="400" viewBox="0 0 400 400" xmlns="http://www.w3.org/2000/svg">
  <!-- Background gradient -->
  <defs>
    <linearGradient id="bgGradient" x1="0%" y1="0%" x2="100%" y2="100%">
      <stop offset="0%" style="stop-color:#fef7f0;stop-opacity:1" />
      <stop offset="50%" style="stop-color:#f0fdfa;stop-opacity:1" />
      <stop offset="100%" style="stop-color:#faf5ff;stop-opacity:1" />
    </linearGradient>
    <linearGradient id="cardGradient" x1="0%" y1="0%" x2="100%" y2="100%">
      <stop offset="0%" style="stop-color:#ffffff;stop-opacity:1" />
      <stop offset="100%" style="stop-color:#f8fafc;stop-opacity:1" />
    </linearGradient>
  </defs>
  
  <!-- Background -->
  <rect width="400" height="400" fill="url(#bgGradient)" rx="20"/>
  
  <!-- Main card -->
  <rect x="50" y="50" width="300" height="300" fill="url(#cardGradient)" rx="20" stroke="#e2e8f0" stroke-width="2"/>
  
  <!-- Communication symbols -->
  <!-- Speech bubble -->
  <circle cx="120" cy="120" r="25" fill="#ed7a3b" opacity="0.8"/>
  <path d="M120 145 L110 160 L130 160 Z" fill="#ed7a3b" opacity="0.8"/>
  
  <!-- Heart -->
  <path d="M200 100 C200 80, 180 80, 180 100 C180 80, 160 80, 160 100 C160 120, 180 140, 200 160 C220 140, 240 120, 240 100 C240 80, 220 80, 220 100 C220 80, 200 80, 200 100 Z" fill="#14b8a6" opacity="0.8"/>
  
  <!-- Star -->
  <path d="M280 120 L290 140 L310 140 L295 155 L300 175 L280 165 L260 175 L265 155 L250 140 L270 140 Z" fill="#a855f7" opacity="0.8"/>
  
  <!-- Smile -->
  <path d="M150 200 Q200 180 250 200" stroke="#facc15" stroke-width="8" fill="none" stroke-linecap="round"/>
  
  <!-- App interface mockup -->
  <rect x="100" y="220" width="200" height="100" fill="#ffffff" rx="10" stroke="#cbd5e1" stroke-width="1"/>
  
  <!-- Button grid -->
  <rect x="110" y="230" width="40" height="30" fill="#ed7a3b" rx="5"/>
  <rect x="160" y="230" width="40" height="30" fill="#14b8a6" rx="5"/>
  <rect x="210" y="230" width="40" height="30" fill="#a855f7" rx="5"/>
  <rect x="260" y="230" width="40" height="30" fill="#facc15" rx="5"/>
  
  <rect x="110" y="270" width="40" height="30" fill="#14b8a6" rx="5"/>
  <rect x="160" y="270" width="40" height="30" fill="#a855f7" rx="5"/>
  <rect x="210" y="270" width="40" height="30" fill="#facc15" rx="5"/>
  <rect x="260" y="270" width="40" height="30" fill="#ed7a3b" rx="5"/>
  
  <!-- Decorative elements -->
  <circle cx="80" cy="80" r="8" fill="#ed7a3b" opacity="0.3"/>
  <circle cx="320" cy="80" r="8" fill="#14b8a6" opacity="0.3"/>
  <circle cx="80" cy="320" r="8" fill="#a855f7" opacity="0.3"/>
  <circle cx="320" cy="320" r="8" fill="#facc15" opacity="0.3"/>
</svg>
